<svg preserveAspectRatio="xMidYMid meet" viewBox="0 0 24 24">
    <path fill="currentColor" d="M21.5,11H15V1.5C15,1.224,14.777,1,14.5,1h-13C1.224,1,1,1.224,1,1.5v21C1,22.776,1.224,23,1.5,23h13
        c0.276,0,0.5-0.224,0.5-0.5V14h6.5c0.829,0,1.5-0.671,1.5-1.5C23,11.671,22.329,11,21.5,11z M21.5,13H6.707
        c1.197,1.196,4.147,4.145,4.148,4.146c0.195,0.195,0.195,0.512-0.001,0.708c-0.195,0.195-0.512,0.195-0.707,0l-5-5
        c-0.195-0.195-0.195-0.512,0-0.707l5-5c0.195-0.195,0.512-0.195,0.707,0s0.195,0.512,0,0.707L6.707,12H21.5
        c0.276,0,0.5,0.224,0.5,0.5S21.776,13,21.5,13z"/>
</svg>
